<svg width="11" height="15" viewBox="0 0 11 15" fill="none" xmlns="http://www.w3.org/2000/svg">
<path d="M9.5 5.33334H8.83333V4.00001C8.83333 2.16001 7.34 0.666672 5.5 0.666672C3.66 0.666672 2.16666 2.16001 2.16666 4.00001V5.33334H1.5C0.766664 5.33334 0.166664 5.93334 0.166664 6.66667V13.3333C0.166664 14.0667 0.766664 14.6667 1.5 14.6667H9.5C10.2333 14.6667 10.8333 14.0667 10.8333 13.3333V6.66667C10.8333 5.93334 10.2333 5.33334 9.5 5.33334ZM5.5 11.3333C4.76666 11.3333 4.16666 10.7333 4.16666 10C4.16666 9.26667 4.76666 8.66667 5.5 8.66667C6.23333 8.66667 6.83333 9.26667 6.83333 10C6.83333 10.7333 6.23333 11.3333 5.5 11.3333ZM7.56666 5.33334H3.43333V4.00001C3.43333 2.86001 4.36 1.93334 5.5 1.93334C6.64 1.93334 7.56666 2.86001 7.56666 4.00001V5.33334Z" fill="white"/>
</svg>
